<?xml version="1.0" encoding="utf-8"?>
<!-- Generator: Adobe Illustrator 16.0.0, SVG Export Plug-In . SVG Version: 6.00 Build 0)  -->
<!DOCTYPE svg PUBLIC "-//W3C//DTD SVG 1.1//EN" "http://www.w3.org/Graphics/SVG/1.1/DTD/svg11.dtd">
<svg version="1.1" id="maglia_davanti" xmlns="http://www.w3.org/2000/svg" xmlns:xlink="http://www.w3.org/1999/xlink" x="0px"
	 y="0px" width="572.6px" height="572.598px" viewBox="0 0 572.6 572.598" enable-background="new 0 0 572.6 572.598"
	 xml:space="preserve">
<g id="Layer_2">
	<rect x="-0.561" fill="#355821" width="573.721" height="575.207"/>
	<g enable-background="new    ">
		<path fill="#FFFFFF" d="M115.269,475.775v-0.683c-0.928,1.062-1.843,1.927-2.745,2.593c-0.902,0.667-1.881,1.173-2.935,1.519
			c-1.054,0.345-2.205,0.519-3.453,0.519c-1.653,0-3.184-0.351-4.592-1.05c-1.409-0.7-2.627-1.699-3.656-2.998
			s-1.809-2.825-2.34-4.58c-0.531-1.754-0.797-3.651-0.797-5.692c0-4.317,1.054-7.683,3.163-10.095
			c2.108-2.411,4.883-3.617,8.324-3.617c1.99,0,3.668,0.341,5.035,1.024c1.366,0.683,2.698,1.733,3.998,3.149v-10.195
			c0-1.417,0.282-2.488,0.848-3.213c0.564-0.726,1.37-1.088,2.416-1.088c1.045,0,1.851,0.333,2.416,0.999
			c0.565,0.666,0.848,1.648,0.848,2.947v30.461c0,1.315-0.304,2.303-0.911,2.96c-0.607,0.658-1.391,0.987-2.353,0.987
			c-0.945,0-1.725-0.342-2.34-1.025C115.577,478.015,115.269,477.041,115.269,475.775z M101.683,465.63
			c0,1.873,0.291,3.467,0.873,4.782s1.379,2.307,2.391,2.973c1.012,0.666,2.116,0.999,3.314,0.999c1.214,0,2.323-0.316,3.327-0.948
			c1.003-0.633,1.805-1.603,2.403-2.91c0.599-1.307,0.898-2.938,0.898-4.896c0-1.838-0.3-3.419-0.898-4.743
			s-1.408-2.336-2.429-3.036c-1.021-0.699-2.138-1.05-3.352-1.05c-1.265,0-2.396,0.358-3.39,1.075
			c-0.996,0.717-1.767,1.746-2.315,3.087C101.957,462.304,101.683,463.859,101.683,465.63z"/>
		<path fill="#FFFFFF" d="M146.666,475.826v-0.886c-0.827,1.046-1.695,1.923-2.606,2.632c-0.911,0.708-1.906,1.235-2.985,1.581
			c-1.08,0.346-2.311,0.519-3.694,0.519c-1.67,0-3.167-0.346-4.491-1.037s-2.349-1.645-3.074-2.859
			c-0.86-1.467-1.291-3.575-1.291-6.325v-13.687c0-1.383,0.312-2.416,0.936-3.1c0.624-0.683,1.451-1.024,2.479-1.024
			c1.046,0,1.889,0.346,2.53,1.037c0.641,0.691,0.961,1.721,0.961,3.087v11.056c0,1.603,0.135,2.947,0.405,4.035
			c0.27,1.088,0.754,1.94,1.455,2.556c0.7,0.616,1.648,0.923,2.846,0.923c1.164,0,2.26-0.345,3.289-1.037
			c1.028-0.691,1.779-1.594,2.251-2.707c0.388-0.978,0.582-3.12,0.582-6.426v-8.399c0-1.366,0.32-2.396,0.961-3.087
			c0.641-0.691,1.476-1.037,2.504-1.037s1.855,0.342,2.479,1.024c0.624,0.684,0.936,1.717,0.936,3.1v20.012
			c0,1.315-0.299,2.303-0.898,2.96c-0.599,0.658-1.371,0.987-2.315,0.987c-0.945,0-1.725-0.342-2.34-1.025
			C146.974,478.015,146.666,477.058,146.666,475.826z"/>
		<path fill="#FFFFFF" d="M179.303,467.376h-13.51c0.017,1.568,0.333,2.952,0.949,4.149s1.434,2.1,2.454,2.707
			s2.146,0.911,3.378,0.911c0.826,0,1.581-0.098,2.264-0.291c0.683-0.194,1.345-0.498,1.986-0.911s1.231-0.855,1.771-1.328
			c0.54-0.473,1.24-1.113,2.1-1.923c0.354-0.304,0.86-0.455,1.518-0.455c0.708,0,1.281,0.193,1.72,0.581
			c0.438,0.389,0.658,0.937,0.658,1.645c0,0.625-0.245,1.354-0.733,2.188c-0.49,0.835-1.227,1.637-2.214,2.403
			c-0.987,0.769-2.227,1.404-3.719,1.91c-1.493,0.507-3.209,0.76-5.148,0.76c-4.436,0-7.885-1.266-10.348-3.795
			c-2.463-2.53-3.694-5.963-3.694-10.298c0-2.04,0.304-3.934,0.911-5.68c0.607-1.745,1.493-3.242,2.656-4.49
			c1.164-1.248,2.597-2.205,4.301-2.872c1.704-0.666,3.593-0.999,5.667-0.999c2.698,0,5.013,0.569,6.945,1.708
			c1.931,1.139,3.377,2.61,4.339,4.415s1.442,3.643,1.442,5.515c0,1.737-0.498,2.863-1.493,3.378S181.108,467.376,179.303,467.376z
			 M165.793,463.454h12.523c-0.168-2.36-0.806-4.127-1.91-5.3c-1.104-1.172-2.56-1.759-4.364-1.759c-1.72,0-3.133,0.595-4.237,1.784
			C166.699,459.368,166.029,461.127,165.793,463.454z"/>
		<path fill="#FFFFFF" d="M196.507,445.314v10.55c1.298-1.349,2.623-2.382,3.972-3.099c1.349-0.717,3.019-1.075,5.009-1.075
			c2.293,0,4.305,0.544,6.034,1.632c1.729,1.088,3.069,2.665,4.022,4.73c0.953,2.066,1.43,4.517,1.43,7.35
			c0,2.092-0.266,4.011-0.797,5.756c-0.531,1.746-1.303,3.26-2.315,4.541c-1.012,1.282-2.239,2.273-3.681,2.974
			c-1.442,0.699-3.032,1.05-4.769,1.05c-1.063,0-2.062-0.127-2.998-0.38c-0.937-0.253-1.733-0.586-2.391-0.999
			s-1.219-0.839-1.683-1.278c-0.464-0.438-1.075-1.096-1.834-1.973v0.683c0,1.299-0.312,2.281-0.936,2.947
			c-0.625,0.666-1.417,1-2.378,1c-0.978,0-1.758-0.334-2.34-1c-0.582-0.666-0.873-1.648-0.873-2.947v-30.157
			c0-1.399,0.282-2.458,0.848-3.175c0.565-0.717,1.354-1.075,2.365-1.075c1.062,0,1.881,0.341,2.454,1.024
			C196.22,443.075,196.507,444.05,196.507,445.314z M196.836,465.833c0,2.749,0.628,4.861,1.885,6.337
			c1.256,1.477,2.905,2.214,4.946,2.214c1.737,0,3.234-0.754,4.491-2.264s1.885-3.673,1.885-6.49c0-1.821-0.261-3.39-0.784-4.705
			s-1.265-2.332-2.226-3.049s-2.083-1.075-3.365-1.075c-1.315,0-2.488,0.358-3.517,1.075s-1.838,1.754-2.429,3.112
			C197.131,462.346,196.836,463.961,196.836,465.833z"/>
		<path fill="#FFFFFF" d="M229.371,469.754v5.769c0,1.4-0.329,2.45-0.986,3.15c-0.658,0.699-1.493,1.05-2.505,1.05
			c-0.995,0-1.813-0.354-2.454-1.062c-0.641-0.709-0.961-1.755-0.961-3.138v-19.228c0-3.104,1.122-4.655,3.365-4.655
			c1.147,0,1.974,0.362,2.479,1.088s0.784,1.796,0.835,3.213c0.826-1.417,1.674-2.487,2.542-3.213s2.028-1.088,3.479-1.088
			c1.45,0,2.859,0.362,4.225,1.088s2.049,1.687,2.049,2.884c0,0.844-0.291,1.54-0.873,2.088s-1.21,0.822-1.885,0.822
			c-0.253,0-0.865-0.156-1.834-0.469c-0.97-0.312-1.826-0.468-2.568-0.468c-1.012,0-1.838,0.266-2.479,0.797
			c-0.642,0.531-1.139,1.32-1.493,2.365c-0.354,1.046-0.599,2.29-0.734,3.732C229.439,465.921,229.371,467.68,229.371,469.754z"/>
		<path fill="#FFFFFF" d="M261.376,475.826c-1.67,1.299-3.285,2.273-4.845,2.922c-1.56,0.649-3.31,0.975-5.25,0.975
			c-1.771,0-3.327-0.351-4.668-1.05c-1.341-0.7-2.374-1.648-3.099-2.847c-0.726-1.197-1.088-2.496-1.088-3.896
			c0-1.889,0.598-3.499,1.796-4.832c1.197-1.332,2.842-2.227,4.933-2.682c0.438-0.102,1.526-0.329,3.264-0.684
			c1.737-0.354,3.226-0.679,4.466-0.974c1.239-0.295,2.584-0.653,4.035-1.075c-0.084-1.821-0.452-3.158-1.101-4.01
			c-0.649-0.852-1.995-1.278-4.035-1.278c-1.754,0-3.074,0.245-3.959,0.734c-0.886,0.489-1.645,1.223-2.277,2.201
			c-0.632,0.978-1.08,1.623-1.341,1.935c-0.262,0.312-0.822,0.469-1.682,0.469c-0.776,0-1.447-0.249-2.012-0.746
			c-0.565-0.498-0.847-1.135-0.847-1.91c0-1.215,0.43-2.396,1.29-3.542c0.86-1.147,2.201-2.092,4.023-2.834
			c1.821-0.742,4.09-1.113,6.806-1.113c3.036,0,5.422,0.358,7.16,1.075c1.737,0.717,2.964,1.852,3.681,3.403
			c0.717,1.552,1.075,3.609,1.075,6.173c0,1.619-0.004,2.994-0.013,4.124c-0.009,1.13-0.021,2.387-0.038,3.77
			c0,1.299,0.215,2.652,0.646,4.061s0.645,2.314,0.645,2.72c0,0.708-0.333,1.354-1,1.936c-0.667,0.582-1.421,0.873-2.264,0.873
			c-0.708,0-1.409-0.334-2.1-1S262.152,477.091,261.376,475.826z M260.921,465.833c-1.012,0.371-2.484,0.763-4.415,1.176
			c-1.931,0.414-3.268,0.718-4.01,0.911c-0.743,0.194-1.451,0.573-2.125,1.139s-1.012,1.354-1.012,2.365
			c0,1.046,0.396,1.936,1.189,2.669c0.792,0.734,1.83,1.101,3.112,1.101c1.366,0,2.627-0.299,3.782-0.897s2.003-1.37,2.543-2.315
			c0.624-1.046,0.936-2.766,0.936-5.161V465.833z"/>
		<path fill="#FFFFFF" d="M299.478,471.171c0,0.86-0.258,1.779-0.772,2.758s-1.299,1.91-2.353,2.796
			c-1.055,0.885-2.383,1.598-3.984,2.138c-1.604,0.539-3.408,0.81-5.414,0.81c-4.268,0-7.599-1.244-9.994-3.731
			c-2.395-2.488-3.592-5.823-3.592-10.007c0-2.833,0.548-5.338,1.645-7.514c1.096-2.176,2.682-3.858,4.756-5.048
			c2.074-1.188,4.554-1.783,7.438-1.783c1.788,0,3.429,0.262,4.922,0.784c1.492,0.523,2.758,1.198,3.795,2.024
			s1.83,1.707,2.377,2.644c0.549,0.937,0.822,1.809,0.822,2.618c0,0.827-0.307,1.527-0.923,2.101s-1.362,0.86-2.239,0.86
			c-0.573,0-1.05-0.147-1.43-0.443c-0.379-0.295-0.805-0.771-1.277-1.43c-0.844-1.281-1.725-2.242-2.644-2.884
			c-0.919-0.641-2.087-0.961-3.504-0.961c-2.041,0-3.686,0.797-4.934,2.391c-1.249,1.594-1.872,3.773-1.872,6.54
			c0,1.299,0.16,2.492,0.48,3.58s0.784,2.016,1.392,2.782c0.607,0.768,1.341,1.35,2.201,1.746c0.86,0.396,1.805,0.595,2.833,0.595
			c1.383,0,2.568-0.32,3.555-0.962c0.987-0.641,1.859-1.619,2.619-2.935c0.422-0.775,0.877-1.383,1.366-1.821
			s1.088-0.658,1.796-0.658c0.844,0,1.543,0.32,2.1,0.962C299.198,469.763,299.478,470.446,299.478,471.171z"/>
		<path fill="#FFFFFF" d="M330.267,471.171c0,0.86-0.257,1.779-0.771,2.758s-1.299,1.91-2.353,2.796
			c-1.054,0.885-2.383,1.598-3.985,2.138c-1.602,0.539-3.406,0.81-5.414,0.81c-4.268,0-7.598-1.244-9.993-3.731
			c-2.396-2.488-3.593-5.823-3.593-10.007c0-2.833,0.549-5.338,1.645-7.514c1.097-2.176,2.682-3.858,4.757-5.048
			c2.074-1.188,4.554-1.783,7.438-1.783c1.787,0,3.428,0.262,4.92,0.784c1.493,0.523,2.758,1.198,3.795,2.024
			s1.83,1.707,2.379,2.644c0.548,0.937,0.822,1.809,0.822,2.618c0,0.827-0.309,1.527-0.924,2.101s-1.362,0.86-2.238,0.86
			c-0.574,0-1.051-0.147-1.43-0.443c-0.38-0.295-0.807-0.771-1.277-1.43c-0.844-1.281-1.726-2.242-2.645-2.884
			c-0.92-0.641-2.088-0.961-3.504-0.961c-2.041,0-3.686,0.797-4.934,2.391s-1.872,3.773-1.872,6.54c0,1.299,0.16,2.492,0.48,3.58
			s0.784,2.016,1.392,2.782c0.607,0.768,1.341,1.35,2.201,1.746c0.859,0.396,1.805,0.595,2.834,0.595
			c1.383,0,2.567-0.32,3.555-0.962c0.986-0.641,1.859-1.619,2.618-2.935c0.421-0.775,0.876-1.383,1.366-1.821
			c0.488-0.438,1.088-0.658,1.796-0.658c0.843,0,1.544,0.32,2.101,0.962C329.99,469.763,330.267,470.446,330.267,471.171z"/>
		<path fill="#FFFFFF" d="M339.781,448.427c-0.962,0-1.784-0.295-2.467-0.886c-0.684-0.59-1.025-1.425-1.025-2.505
			c0-0.978,0.35-1.783,1.051-2.416c0.699-0.633,1.514-0.949,2.441-0.949c0.894,0,1.686,0.287,2.378,0.86
			c0.691,0.574,1.037,1.409,1.037,2.505c0,1.062-0.337,1.894-1.013,2.492C341.509,448.127,340.707,448.427,339.781,448.427z
			 M343.196,455.561v19.962c0,1.383-0.329,2.429-0.987,3.138c-0.657,0.708-1.492,1.062-2.504,1.062s-1.834-0.363-2.467-1.088
			c-0.633-0.726-0.949-1.763-0.949-3.112v-19.759c0-1.366,0.316-2.396,0.949-3.087s1.455-1.037,2.467-1.037s1.847,0.346,2.504,1.037
			C342.866,453.368,343.196,454.33,343.196,455.561z"/>
		<path fill="#FFFFFF" d="M367.787,475.826c-1.67,1.299-3.285,2.273-4.845,2.922c-1.561,0.649-3.311,0.975-5.25,0.975
			c-1.771,0-3.327-0.351-4.668-1.05c-1.341-0.7-2.374-1.648-3.1-2.847c-0.725-1.197-1.088-2.496-1.088-3.896
			c0-1.889,0.599-3.499,1.797-4.832c1.197-1.332,2.842-2.227,4.934-2.682c0.438-0.102,1.525-0.329,3.264-0.684
			c1.736-0.354,3.226-0.679,4.465-0.974c1.24-0.295,2.585-0.653,4.035-1.075c-0.084-1.821-0.451-3.158-1.1-4.01
			c-0.65-0.852-1.995-1.278-4.035-1.278c-1.755,0-3.074,0.245-3.96,0.734s-1.645,1.223-2.277,2.201
			c-0.632,0.978-1.079,1.623-1.341,1.935c-0.262,0.312-0.822,0.469-1.682,0.469c-0.777,0-1.447-0.249-2.012-0.746
			c-0.565-0.498-0.848-1.135-0.848-1.91c0-1.215,0.43-2.396,1.29-3.542c0.86-1.147,2.201-2.092,4.022-2.834
			c1.822-0.742,4.09-1.113,6.807-1.113c3.035,0,5.422,0.358,7.159,1.075s2.964,1.852,3.681,3.403s1.076,3.609,1.076,6.173
			c0,1.619-0.005,2.994-0.014,4.124c-0.008,1.13-0.021,2.387-0.037,3.77c0,1.299,0.215,2.652,0.645,4.061
			c0.431,1.408,0.646,2.314,0.646,2.72c0,0.708-0.333,1.354-0.999,1.936c-0.667,0.582-1.422,0.873-2.265,0.873
			c-0.708,0-1.409-0.334-2.101-1S368.563,477.091,367.787,475.826z M367.331,465.833c-1.012,0.371-2.483,0.763-4.414,1.176
			c-1.932,0.414-3.269,0.718-4.01,0.911c-0.743,0.194-1.451,0.573-2.126,1.139s-1.012,1.354-1.012,2.365
			c0,1.046,0.396,1.936,1.188,2.669c0.793,0.734,1.83,1.101,3.112,1.101c1.366,0,2.627-0.299,3.782-0.897s2.003-1.37,2.543-2.315
			c0.623-1.046,0.936-2.766,0.936-5.161V465.833z"/>
		<path fill="#FFFFFF" d="M380.209,452.247h0.759v-4.149c0-1.113,0.029-1.986,0.089-2.619c0.059-0.632,0.224-1.176,0.493-1.632
			c0.27-0.472,0.658-0.855,1.164-1.15s1.07-0.443,1.695-0.443c0.877,0,1.67,0.329,2.378,0.987c0.472,0.438,0.771,0.974,0.897,1.606
			c0.127,0.632,0.19,1.53,0.19,2.694v4.706h2.53c0.978,0,1.724,0.231,2.239,0.695c0.514,0.464,0.771,1.059,0.771,1.784
			c0,0.928-0.367,1.577-1.102,1.947c-0.732,0.371-1.783,0.557-3.149,0.557h-1.29v12.701c0,1.079,0.038,1.91,0.114,2.491
			c0.075,0.582,0.277,1.055,0.606,1.417c0.329,0.363,0.864,0.544,1.606,0.544c0.405,0,0.953-0.071,1.646-0.215
			c0.691-0.143,1.23-0.215,1.619-0.215c0.557,0,1.057,0.224,1.504,0.67c0.447,0.447,0.672,1,0.672,1.657
			c0,1.113-0.607,1.966-1.822,2.556s-2.96,0.886-5.237,0.886c-2.159,0-3.795-0.363-4.908-1.088
			c-1.113-0.726-1.843-1.729-2.188-3.011c-0.347-1.282-0.52-2.994-0.52-5.136V457.23h-0.91c-0.996,0-1.755-0.235-2.277-0.708
			c-0.523-0.472-0.784-1.071-0.784-1.796c0-0.726,0.274-1.32,0.822-1.784S379.163,452.247,380.209,452.247z"/>
		<path fill="#FFFFFF" d="M417.45,467.376h-13.51c0.017,1.568,0.333,2.952,0.948,4.149s1.434,2.1,2.454,2.707
			s2.146,0.911,3.378,0.911c0.826,0,1.581-0.098,2.264-0.291c0.684-0.194,1.346-0.498,1.986-0.911s1.231-0.855,1.771-1.328
			c0.539-0.473,1.239-1.113,2.1-1.923c0.354-0.304,0.86-0.455,1.518-0.455c0.709,0,1.282,0.193,1.721,0.581
			c0.438,0.389,0.658,0.937,0.658,1.645c0,0.625-0.245,1.354-0.734,2.188s-1.227,1.637-2.214,2.403
			c-0.986,0.769-2.226,1.404-3.719,1.91c-1.492,0.507-3.209,0.76-5.148,0.76c-4.437,0-7.885-1.266-10.348-3.795
			c-2.463-2.53-3.693-5.963-3.693-10.298c0-2.04,0.304-3.934,0.91-5.68c0.607-1.745,1.493-3.242,2.657-4.49
			c1.163-1.248,2.597-2.205,4.301-2.872c1.703-0.666,3.593-0.999,5.667-0.999c2.698,0,5.014,0.569,6.944,1.708
			c1.932,1.139,3.378,2.61,4.339,4.415c0.962,1.805,1.442,3.643,1.442,5.515c0,1.737-0.497,2.863-1.492,3.378
			C420.655,467.119,419.255,467.376,417.45,467.376z M403.941,463.454h12.523c-0.169-2.36-0.806-4.127-1.91-5.3
			c-1.105-1.172-2.56-1.759-4.364-1.759c-1.721,0-3.134,0.595-4.238,1.784C404.847,459.368,404.176,461.127,403.941,463.454z"/>
		<path fill="#FFFFFF" d="M430.96,479.723c-1.046,0-1.948-0.338-2.707-1.013c-0.759-0.674-1.139-1.619-1.139-2.833
			c0-1.028,0.362-1.914,1.088-2.656s1.619-1.113,2.682-1.113s1.97,0.366,2.72,1.101c0.751,0.733,1.126,1.623,1.126,2.669
			c0,1.197-0.375,2.138-1.126,2.82C432.854,479.381,431.972,479.723,430.96,479.723z"/>
		<path fill="#FFFFFF" d="M446.09,448.427c-0.961,0-1.783-0.295-2.467-0.886c-0.683-0.59-1.024-1.425-1.024-2.505
			c0-0.978,0.35-1.783,1.05-2.416s1.514-0.949,2.441-0.949c0.894,0,1.687,0.287,2.378,0.86c0.691,0.574,1.038,1.409,1.038,2.505
			c0,1.062-0.338,1.894-1.013,2.492S447.018,448.427,446.09,448.427z M449.506,455.561v19.962c0,1.383-0.329,2.429-0.987,3.138
			c-0.657,0.708-1.492,1.062-2.505,1.062c-1.012,0-1.834-0.363-2.467-1.088c-0.632-0.726-0.948-1.763-0.948-3.112v-19.759
			c0-1.366,0.316-2.396,0.948-3.087c0.633-0.691,1.455-1.037,2.467-1.037c1.013,0,1.848,0.346,2.505,1.037
			C449.177,453.368,449.506,454.33,449.506,455.561z"/>
		<path fill="#FFFFFF" d="M457.019,452.247h0.76v-4.149c0-1.113,0.029-1.986,0.088-2.619c0.06-0.632,0.224-1.176,0.494-1.632
			c0.27-0.472,0.657-0.855,1.163-1.15s1.071-0.443,1.695-0.443c0.877,0,1.67,0.329,2.378,0.987c0.473,0.438,0.771,0.974,0.898,1.606
			c0.127,0.632,0.189,1.53,0.189,2.694v4.706h2.53c0.979,0,1.725,0.231,2.239,0.695c0.514,0.464,0.771,1.059,0.771,1.784
			c0,0.928-0.367,1.577-1.101,1.947c-0.733,0.371-1.783,0.557-3.149,0.557h-1.291v12.701c0,1.079,0.038,1.91,0.114,2.491
			c0.076,0.582,0.278,1.055,0.607,1.417c0.328,0.363,0.864,0.544,1.606,0.544c0.404,0,0.952-0.071,1.645-0.215
			c0.691-0.143,1.23-0.215,1.619-0.215c0.557,0,1.058,0.224,1.505,0.67c0.447,0.447,0.671,1,0.671,1.657
			c0,1.113-0.607,1.966-1.822,2.556c-1.214,0.59-2.96,0.886-5.236,0.886c-2.159,0-3.795-0.363-4.908-1.088
			c-1.113-0.726-1.843-1.729-2.188-3.011c-0.346-1.282-0.519-2.994-0.519-5.136V457.23h-0.911c-0.995,0-1.754-0.235-2.277-0.708
			c-0.522-0.472-0.784-1.071-0.784-1.796c0-0.726,0.274-1.32,0.822-1.784S455.973,452.247,457.019,452.247z"/>
	</g>
	<g id="nuotatore">
		<g>
			<path fill="#FFFFFF" d="M68.484,96.429c-6.812,21.776-1.819,72.813-1.819,95.165c0,77.582,0,165.422,0,244.299
				c0,38.199-1.123,58.875,26.542,68.637c22.188,7.822,64.092,2.758,95.165,2.758c64.576,0,130.241,0,195.807,0
				c27.703,0,74.812,5.367,95.177-2.758c34.067-13.576,25.607-66.178,25.607-114.369c0-69.258,0-140.238,0-205.877
				c0-28.865,4.954-77.271-6.402-97c-4.153-7.25-13.987-15.773-23.797-18.294c-11.381-2.944-29.176-0.923-45.733-0.923
				c-79.954,0-157.196,0-235.18,0c-28.377,0-70.543-4.168-95.151,0.923C82.536,72.332,72.477,83.738,68.484,96.429z M34.43,491.239
				c-3.319-13.465-0.948-33.045-0.948-51.127c0-100.505,0-206.613,0-307.73c0-16.809-2.271-35.564,1.909-49.229
				C41.905,61.777,59.65,40.65,87.467,35.809c28.677-5.005,69.745-0.949,101.304-0.949c82.76,0,165.56,0,250.929,0
				c16.521,0,35.34-2.482,48.279,0.949c23.822,6.302,43.988,25.692,49.242,56.804c5.503,32.646,0.948,69.632,0.948,100.368
				c0,59.425,0,136.008,0,202.632c0,35.13,4.842,73.688-2.846,97.522c-7.237,22.477-22.948,37.586-44.5,44.514
				c-23.312,7.477-65.377,2.818-98.473,2.818c-68.31,0-138.117,0-202.621,0c-33.806,0-69.87,3.369-100.381-0.936
				C61.982,535.688,40.296,514.922,34.43,491.239z"/>
			<path fill="#FFFFFF" d="M473.202,388.748c0,11.154,0,22.312,0,33.469c-17.646,0.137-28.54-9.846-46.247-9.846
				c-19.005,0-35.091,11.592-53.136,9.846c-16.747-1.635-29.076-10.494-43.312-9.846c-15.647,0.711-29.026,11.879-50.179,9.846
				c-16.983-1.635-30.139-13.078-52.161-8.859c-11.568,2.209-22.228,10.385-40.347,8.859c-14.763-1.248-27.429-9.846-42.313-9.846
				c-17.187,0-27.666,9.596-46.259,9.846c0-11.156,0-22.312,0-33.469c15.424,0.287,29.962-10.596,45.271-10.818
				c19.155-0.287,37.688,13.238,58.064,9.846c14.148-2.371,25.27-9.783,36.398-9.846c17.882-0.088,34.242,13.641,57.091,9.846
				c14.026-2.346,25.259-9.896,37.399-9.846c16.921,0.074,33.682,13.502,56.08,9.846c13.128-2.158,24.695-9.846,37.398-9.846
				C444.401,377.93,455.432,388.286,473.202,388.748z"/>
			<path fill="#FFFFFF" d="M411.219,237.204c35.415-6.103,65.027,27.828,48.206,62.981c-21.027,43.963-103.052,22.235-81.675-36.415
				C381.757,252.741,392.849,240.373,411.219,237.204z"/>
			<path fill="#FFFFFF" d="M366.92,162.405c22.536-4.168,68.396-17.357,63.979,21.664c-2.545,22.361-35.103,24.122-59.062,28.54
				c-15.998,2.944-30.975,5.314-48.206,7.859c22.148,47.06,49.116,89.312,72.814,134.824c-26.271,8.849-49.778-9.821-70.854-6.877
				c-14.063,1.946-30.199,13.215-51.176,8.836c-14.563-3.033-22.25-9.771-34.442-9.834c-13.278-0.074-27.753,10.694-47.232,10.832
				c-10.808,0.076-20.928-4.556-31.496-7.873c41.865-25.06,86.18-47.658,128.933-71.842c-5.703-13.078-12.279-24.158-19.692-37.398
				c-8.086-14.438-29.75-42.989-8.857-58.053c6.312-4.555,23.035-5.828,34.455-7.873
				C320.908,170.741,342.473,166.936,366.92,162.405z"/>
		</g>
		<g>
			<path fill="none" stroke="#000000" stroke-width="0.5" stroke-linecap="round" stroke-linejoin="round" d="M87.466,35.806
				c28.677-5.005,69.745-0.948,101.304-0.948c82.76,0,165.56,0,250.929,0c16.521,0,35.34-2.483,48.279,0.948
				C511.8,42.108,531.966,61.5,537.219,92.61c5.503,32.645,0.947,69.633,0.947,100.368c0,59.425,0,136.008,0,202.633
				c0,35.128,4.843,73.688-2.845,97.521c-7.237,22.479-22.948,37.586-44.5,44.515c-23.312,7.476-65.377,2.817-98.473,2.817
				c-68.311,0-138.117,0-202.621,0c-33.806,0-69.87,3.369-100.381-0.936c-27.366-3.845-49.055-24.607-54.92-48.293
				c-3.319-13.466-0.948-33.043-0.948-51.125c0-100.507,0-206.615,0-307.732c0-16.809-2.271-35.563,1.909-49.229
				C41.904,61.775,59.649,40.648,87.466,35.806z"/>
		</g>
	</g>
</g>
</svg>
